<?xml version="1.0" encoding="iso-8859-1"?>
<!-- Uploaded to: SVG Repo, www.svgrepo.com, Generator: SVG Repo Mixer Tools -->
<!DOCTYPE svg PUBLIC "-//W3C//DTD SVG 1.1//EN" "http://www.w3.org/Graphics/SVG/1.1/DTD/svg11.dtd">
<svg fill="#000000" version="1.1" id="Capa_1" xmlns="http://www.w3.org/2000/svg" xmlns:xlink="http://www.w3.org/1999/xlink" 
	 width="800px" height="800px" viewBox="0 0 453.193 453.193"
	 xml:space="preserve">
<g>
	<g>
		<path d="M300.459,273.347l-32.152-14.805l-15.447-13.025l-24.318,24.189l11.518,76.994c0.041,0.273-0.027,0.553-0.19,0.775
			l-7.401,10.129c36.303-1.635,68.742-18.342,91.197-44.004c-5.596-16.367-11.395-30.18-11.395-30.18
			C310.199,278.47,305.217,275.298,300.459,273.347z"/>
		<path d="M213.136,346.701l11.518-76.995l-24.318-24.188l-15.447,13.024l-32.152,14.804c-4.758,1.953-10.241,6.362-11.811,10.076
			c0,0-5.8,13.812-11.393,30.18c22.454,25.662,54.895,42.367,91.195,44.004l-7.4-10.129
			C213.164,347.253,213.095,346.974,213.136,346.701z"/>
		<path d="M226.597,245.048c32.883,0,57.424-30.639,57.981-82.02c0.357-35.652-16.622-56.99-57.981-56.99
			c-41.361,0-58.344,21.338-57.98,56.99C169.173,214.41,193.712,245.048,226.597,245.048z"/>
		<path d="M450.693,222.269l-40.174-23.198c-13.379-78.3-75.705-140.106-154.266-152.707L230.93,2.501
			c-0.895-1.547-2.545-2.5-4.331-2.5c-1.786,0-3.437,0.953-4.33,2.5L196.94,46.364C118.38,58.965,56.055,120.77,42.674,199.07
			L2.5,222.265c-1.547,0.894-2.5,2.544-2.5,4.33c0,1.787,0.953,3.438,2.5,4.33l38.891,22.457
			c10.285,84.104,76.742,151.092,160.596,162.189l20.278,35.121c0.894,1.547,2.544,2.5,4.33,2.5c1.786,0,3.436-0.953,4.331-2.5
			l20.28-35.121c83.854-11.098,150.312-78.085,160.597-162.188l38.891-22.455c1.547-0.894,2.5-2.543,2.5-4.33
			C453.193,224.813,452.24,223.162,450.693,222.269z M226.597,377.196c-80.835,0-146.6-65.764-146.6-146.6
			c0-80.834,65.765-146.6,146.6-146.6c80.834,0,146.6,65.765,146.6,146.6C373.197,311.433,307.432,377.196,226.597,377.196z"/>
	</g>
</g>
</svg>